<svg viewBox="0 0 1200 1800" xmlns="http://www.w3.org/2000/svg">

  <g><circle cx="40" cy="63" r="11" fill="#ff6b6b"/><rect x="117" y="21" width="18" height="12" fill="#ffd93d" transform="rotate(30 126 27)"/><rect x="205" y="56" width="14" height="14" fill="#6bcbef" transform="rotate(12 212 63)"/><circle cx="298" cy="27" r="11" fill="#a685e2"/><rect x="376" y="57" width="18" height="12" fill="#7ee787" transform="rotate(30 385 63)"/><rect x="464" y="20" width="14" height="14" fill="#ff9f5b" transform="rotate(12 471 27)"/><circle cx="557" cy="63" r="11" fill="#ff6b6b"/><rect x="634" y="21" width="18" height="12" fill="#ffd93d" transform="rotate(30 643 27)"/><rect x="722" y="56" width="14" height="14" fill="#6bcbef" transform="rotate(12 729 63)"/><circle cx="815" cy="27" r="11" fill="#a685e2"/><rect x="893" y="57" width="18" height="12" fill="#7ee787" transform="rotate(30 902 63)"/><rect x="981" y="20" width="14" height="14" fill="#ff9f5b" transform="rotate(12 988 27)"/><circle cx="1074" cy="63" r="11" fill="#ff6b6b"/><rect x="1151" y="21" width="18" height="12" fill="#ffd93d" transform="rotate(30 1160 27)"/><circle cx="40" cy="1623" r="11" fill="#6bcbef"/><rect x="117" y="1581" width="18" height="12" fill="#a685e2" transform="rotate(30 126 1587)"/><rect x="205" y="1616" width="14" height="14" fill="#7ee787" transform="rotate(12 212 1623)"/><circle cx="298" cy="1587" r="11" fill="#ff9f5b"/><rect x="376" y="1617" width="18" height="12" fill="#ff6b6b" transform="rotate(30 385 1623)"/><rect x="464" y="1580" width="14" height="14" fill="#ffd93d" transform="rotate(12 471 1587)"/><circle cx="557" cy="1623" r="11" fill="#6bcbef"/><rect x="634" y="1581" width="18" height="12" fill="#a685e2" transform="rotate(30 643 1587)"/><rect x="722" y="1616" width="14" height="14" fill="#7ee787" transform="rotate(12 729 1623)"/><circle cx="815" cy="1587" r="11" fill="#ff9f5b"/><rect x="893" y="1617" width="18" height="12" fill="#ff6b6b" transform="rotate(30 902 1623)"/><rect x="981" y="1580" width="14" height="14" fill="#ffd93d" transform="rotate(12 988 1587)"/><circle cx="1074" cy="1623" r="11" fill="#6bcbef"/><rect x="1151" y="1581" width="18" height="12" fill="#a685e2" transform="rotate(30 1160 1587)"/><circle cx="63" cy="220" r="10" fill="#ffd93d"/><rect x="19" y="363" width="16" height="16" fill="#6bcbef" transform="rotate(20 27 371)"/><circle cx="63" cy="522" r="10" fill="#a685e2"/><rect x="19" y="665" width="16" height="16" fill="#7ee787" transform="rotate(20 27 673)"/><circle cx="63" cy="824" r="10" fill="#ff9f5b"/><rect x="19" y="968" width="16" height="16" fill="#ff6b6b" transform="rotate(20 27 976)"/><circle cx="63" cy="1127" r="10" fill="#ffd93d"/><rect x="19" y="1270" width="16" height="16" fill="#6bcbef" transform="rotate(20 27 1278)"/><circle cx="63" cy="1429" r="10" fill="#a685e2"/><rect x="19" y="1572" width="16" height="16" fill="#7ee787" transform="rotate(20 27 1580)"/><circle cx="1173" cy="220" r="10" fill="#a685e2"/><rect x="1129" y="363" width="16" height="16" fill="#7ee787" transform="rotate(20 1137 371)"/><circle cx="1173" cy="522" r="10" fill="#ff9f5b"/><rect x="1129" y="665" width="16" height="16" fill="#ff6b6b" transform="rotate(20 1137 673)"/><circle cx="1173" cy="824" r="10" fill="#ffd93d"/><rect x="1129" y="968" width="16" height="16" fill="#6bcbef" transform="rotate(20 1137 976)"/><circle cx="1173" cy="1127" r="10" fill="#a685e2"/><rect x="1129" y="1270" width="16" height="16" fill="#7ee787" transform="rotate(20 1137 1278)"/><circle cx="1173" cy="1429" r="10" fill="#ff9f5b"/><rect x="1129" y="1572" width="16" height="16" fill="#ff6b6b" transform="rotate(20 1137 1580)"/></g>
  <rect x="0" y="1650" width="1200" height="150" fill="#1c1624" opacity="0.9"/>
  <text x="600.0" y="1730" font-family="Arial Black, Arial, sans-serif" font-size="54" fill="#ffd93d" text-anchor="middle" letter-spacing="6">PARTY TIME!</text>

</svg>