<svg viewBox="0 0 1200 1800" xmlns="http://www.w3.org/2000/svg">

  <rect x="0" y="0" width="1200" height="1800" fill="none"/>
  <rect x="0" y="0" width="70" height="1800" fill="#0c0a11"/>
  <rect x="1130" y="0" width="70" height="1800" fill="#0c0a11"/>
  <rect x="0" y="0" width="1200" height="70" fill="#0c0a11"/>
  <rect x="0" y="1730" width="1200" height="70" fill="#0c0a11"/>
  <g><rect x="19.0" y="13.0" width="32" height="44" rx="6" fill="#14111a"/><rect x="1149.0" y="13.0" width="32" height="44" rx="6" fill="#14111a"/><rect x="19.0" y="83.0" width="32" height="44" rx="6" fill="#14111a"/><rect x="1149.0" y="83.0" width="32" height="44" rx="6" fill="#14111a"/><rect x="19.0" y="153.0" width="32" height="44" rx="6" fill="#14111a"/><rect x="1149.0" y="153.0" width="32" height="44" rx="6" fill="#14111a"/><rect x="19.0" y="223.0" width="32" height="44" rx="6" fill="#14111a"/><rect x="1149.0" y="223.0" width="32" height="44" rx="6" fill="#14111a"/><rect x="19.0" y="293.0" width="32" height="44" rx="6" fill="#14111a"/><rect x="1149.0" y="293.0" width="32" height="44" rx="6" fill="#14111a"/><rect x="19.0" y="363.0" width="32" height="44" rx="6" fill="#14111a"/><rect x="1149.0" y="363.0" width="32" height="44" rx="6" fill="#14111a"/><rect x="19.0" y="433.0" width="32" height="44" rx="6" fill="#14111a"/><rect x="1149.0" y="433.0" width="32" height="44" rx="6" fill="#14111a"/><rect x="19.0" y="503.0" width="32" height="44" rx="6" fill="#14111a"/><rect x="1149.0" y="503.0" width="32" height="44" rx="6" fill="#14111a"/><rect x="19.0" y="573.0" width="32" height="44" rx="6" fill="#14111a"/><rect x="1149.0" y="573.0" width="32" height="44" rx="6" fill="#14111a"/><rect x="19.0" y="643.0" width="32" height="44" rx="6" fill="#14111a"/><rect x="1149.0" y="643.0" width="32" height="44" rx="6" fill="#14111a"/><rect x="19.0" y="713.0" width="32" height="44" rx="6" fill="#14111a"/><rect x="1149.0" y="713.0" width="32" height="44" rx="6" fill="#14111a"/><rect x="19.0" y="783.0" width="32" height="44" rx="6" fill="#14111a"/><rect x="1149.0" y="783.0" width="32" height="44" rx="6" fill="#14111a"/><rect x="19.0" y="853.0" width="32" height="44" rx="6" fill="#14111a"/><rect x="1149.0" y="853.0" width="32" height="44" rx="6" fill="#14111a"/><rect x="19.0" y="923.0" width="32" height="44" rx="6" fill="#14111a"/><rect x="1149.0" y="923.0" width="32" height="44" rx="6" fill="#14111a"/><rect x="19.0" y="993.0" width="32" height="44" rx="6" fill="#14111a"/><rect x="1149.0" y="993.0" width="32" height="44" rx="6" fill="#14111a"/><rect x="19.0" y="1063.0" width="32" height="44" rx="6" fill="#14111a"/><rect x="1149.0" y="1063.0" width="32" height="44" rx="6" fill="#14111a"/><rect x="19.0" y="1133.0" width="32" height="44" rx="6" fill="#14111a"/><rect x="1149.0" y="1133.0" width="32" height="44" rx="6" fill="#14111a"/><rect x="19.0" y="1203.0" width="32" height="44" rx="6" fill="#14111a"/><rect x="1149.0" y="1203.0" width="32" height="44" rx="6" fill="#14111a"/><rect x="19.0" y="1273.0" width="32" height="44" rx="6" fill="#14111a"/><rect x="1149.0" y="1273.0" width="32" height="44" rx="6" fill="#14111a"/><rect x="19.0" y="1343.0" width="32" height="44" rx="6" fill="#14111a"/><rect x="1149.0" y="1343.0" width="32" height="44" rx="6" fill="#14111a"/><rect x="19.0" y="1413.0" width="32" height="44" rx="6" fill="#14111a"/><rect x="1149.0" y="1413.0" width="32" height="44" rx="6" fill="#14111a"/><rect x="19.0" y="1483.0" width="32" height="44" rx="6" fill="#14111a"/><rect x="1149.0" y="1483.0" width="32" height="44" rx="6" fill="#14111a"/><rect x="19.0" y="1553.0" width="32" height="44" rx="6" fill="#14111a"/><rect x="1149.0" y="1553.0" width="32" height="44" rx="6" fill="#14111a"/><rect x="19.0" y="1623.0" width="32" height="44" rx="6" fill="#14111a"/><rect x="1149.0" y="1623.0" width="32" height="44" rx="6" fill="#14111a"/><rect x="19.0" y="1693.0" width="32" height="44" rx="6" fill="#14111a"/><rect x="1149.0" y="1693.0" width="32" height="44" rx="6" fill="#14111a"/></g>
  <rect x="66" y="66" width="1068" height="1668" fill="none" stroke="#fdf8ef" stroke-width="2"/>
  <rect x="0" y="1730" width="1200" height="70" fill="#0c0a11"/>
  <text x="600.0" y="1781.0" font-family="Courier New, monospace" font-size="36" fill="#fdf8ef" text-anchor="middle" letter-spacing="12">PHOTO BOOTH</text>

</svg>