<svg viewBox="0 0 1200 1800" xmlns="http://www.w3.org/2000/svg">
  <rect x="52" y="52" width="1096" height="1696" fill="none" stroke="#ffb43c" stroke-width="5"/>
  <rect x="70" y="70" width="1060" height="1660" fill="none" stroke="#ffd48a" stroke-width="1.5"/>
  <g><circle cx="26" cy="26" r="9" fill="#ffb43c"/><circle cx="26" cy="1774" r="9" fill="#ffb43c"/><circle cx="82" cy="26" r="9" fill="#ffb43c"/><circle cx="82" cy="1774" r="9" fill="#ffb43c"/><circle cx="138" cy="26" r="9" fill="#ffb43c"/><circle cx="138" cy="1774" r="9" fill="#ffb43c"/><circle cx="194" cy="26" r="9" fill="#ffb43c"/><circle cx="194" cy="1774" r="9" fill="#ffb43c"/><circle cx="250" cy="26" r="9" fill="#ffb43c"/><circle cx="250" cy="1774" r="9" fill="#ffb43c"/><circle cx="306" cy="26" r="9" fill="#ffb43c"/><circle cx="306" cy="1774" r="9" fill="#ffb43c"/><circle cx="362" cy="26" r="9" fill="#ffb43c"/><circle cx="362" cy="1774" r="9" fill="#ffb43c"/><circle cx="418" cy="26" r="9" fill="#ffb43c"/><circle cx="418" cy="1774" r="9" fill="#ffb43c"/><circle cx="474" cy="26" r="9" fill="#ffb43c"/><circle cx="474" cy="1774" r="9" fill="#ffb43c"/><circle cx="530" cy="26" r="9" fill="#ffb43c"/><circle cx="530" cy="1774" r="9" fill="#ffb43c"/><circle cx="586" cy="26" r="9" fill="#ffb43c"/><circle cx="586" cy="1774" r="9" fill="#ffb43c"/><circle cx="642" cy="26" r="9" fill="#ffb43c"/><circle cx="642" cy="1774" r="9" fill="#ffb43c"/><circle cx="698" cy="26" r="9" fill="#ffb43c"/><circle cx="698" cy="1774" r="9" fill="#ffb43c"/><circle cx="754" cy="26" r="9" fill="#ffb43c"/><circle cx="754" cy="1774" r="9" fill="#ffb43c"/><circle cx="810" cy="26" r="9" fill="#ffb43c"/><circle cx="810" cy="1774" r="9" fill="#ffb43c"/><circle cx="866" cy="26" r="9" fill="#ffb43c"/><circle cx="866" cy="1774" r="9" fill="#ffb43c"/><circle cx="922" cy="26" r="9" fill="#ffb43c"/><circle cx="922" cy="1774" r="9" fill="#ffb43c"/><circle cx="978" cy="26" r="9" fill="#ffb43c"/><circle cx="978" cy="1774" r="9" fill="#ffb43c"/><circle cx="1034" cy="26" r="9" fill="#ffb43c"/><circle cx="1034" cy="1774" r="9" fill="#ffb43c"/><circle cx="1090" cy="26" r="9" fill="#ffb43c"/><circle cx="1090" cy="1774" r="9" fill="#ffb43c"/><circle cx="1146" cy="26" r="9" fill="#ffb43c"/><circle cx="1146" cy="1774" r="9" fill="#ffb43c"/><circle cx="26" cy="26" r="9" fill="#ffb43c"/><circle cx="1174" cy="26" r="9" fill="#ffb43c"/><circle cx="26" cy="82" r="9" fill="#ffb43c"/><circle cx="1174" cy="82" r="9" fill="#ffb43c"/><circle cx="26" cy="138" r="9" fill="#ffb43c"/><circle cx="1174" cy="138" r="9" fill="#ffb43c"/><circle cx="26" cy="194" r="9" fill="#ffb43c"/><circle cx="1174" cy="194" r="9" fill="#ffb43c"/><circle cx="26" cy="250" r="9" fill="#ffb43c"/><circle cx="1174" cy="250" r="9" fill="#ffb43c"/><circle cx="26" cy="306" r="9" fill="#ffb43c"/><circle cx="1174" cy="306" r="9" fill="#ffb43c"/><circle cx="26" cy="362" r="9" fill="#ffb43c"/><circle cx="1174" cy="362" r="9" fill="#ffb43c"/><circle cx="26" cy="418" r="9" fill="#ffb43c"/><circle cx="1174" cy="418" r="9" fill="#ffb43c"/><circle cx="26" cy="474" r="9" fill="#ffb43c"/><circle cx="1174" cy="474" r="9" fill="#ffb43c"/><circle cx="26" cy="530" r="9" fill="#ffb43c"/><circle cx="1174" cy="530" r="9" fill="#ffb43c"/><circle cx="26" cy="586" r="9" fill="#ffb43c"/><circle cx="1174" cy="586" r="9" fill="#ffb43c"/><circle cx="26" cy="642" r="9" fill="#ffb43c"/><circle cx="1174" cy="642" r="9" fill="#ffb43c"/><circle cx="26" cy="698" r="9" fill="#ffb43c"/><circle cx="1174" cy="698" r="9" fill="#ffb43c"/><circle cx="26" cy="754" r="9" fill="#ffb43c"/><circle cx="1174" cy="754" r="9" fill="#ffb43c"/><circle cx="26" cy="810" r="9" fill="#ffb43c"/><circle cx="1174" cy="810" r="9" fill="#ffb43c"/><circle cx="26" cy="866" r="9" fill="#ffb43c"/><circle cx="1174" cy="866" r="9" fill="#ffb43c"/><circle cx="26" cy="922" r="9" fill="#ffb43c"/><circle cx="1174" cy="922" r="9" fill="#ffb43c"/><circle cx="26" cy="978" r="9" fill="#ffb43c"/><circle cx="1174" cy="978" r="9" fill="#ffb43c"/><circle cx="26" cy="1034" r="9" fill="#ffb43c"/><circle cx="1174" cy="1034" r="9" fill="#ffb43c"/><circle cx="26" cy="1090" r="9" fill="#ffb43c"/><circle cx="1174" cy="1090" r="9" fill="#ffb43c"/><circle cx="26" cy="1146" r="9" fill="#ffb43c"/><circle cx="1174" cy="1146" r="9" fill="#ffb43c"/><circle cx="26" cy="1202" r="9" fill="#ffb43c"/><circle cx="1174" cy="1202" r="9" fill="#ffb43c"/><circle cx="26" cy="1258" r="9" fill="#ffb43c"/><circle cx="1174" cy="1258" r="9" fill="#ffb43c"/><circle cx="26" cy="1314" r="9" fill="#ffb43c"/><circle cx="1174" cy="1314" r="9" fill="#ffb43c"/><circle cx="26" cy="1370" r="9" fill="#ffb43c"/><circle cx="1174" cy="1370" r="9" fill="#ffb43c"/><circle cx="26" cy="1426" r="9" fill="#ffb43c"/><circle cx="1174" cy="1426" r="9" fill="#ffb43c"/><circle cx="26" cy="1482" r="9" fill="#ffb43c"/><circle cx="1174" cy="1482" r="9" fill="#ffb43c"/><circle cx="26" cy="1538" r="9" fill="#ffb43c"/><circle cx="1174" cy="1538" r="9" fill="#ffb43c"/><circle cx="26" cy="1594" r="9" fill="#ffb43c"/><circle cx="1174" cy="1594" r="9" fill="#ffb43c"/><circle cx="26" cy="1650" r="9" fill="#ffb43c"/><circle cx="1174" cy="1650" r="9" fill="#ffb43c"/><circle cx="26" cy="1706" r="9" fill="#ffb43c"/><circle cx="1174" cy="1706" r="9" fill="#ffb43c"/><circle cx="26" cy="1762" r="9" fill="#ffb43c"/><circle cx="1174" cy="1762" r="9" fill="#ffb43c"/></g>
  <rect x="0" y="1650" width="1200" height="150" fill="#14111a" opacity="0.92"/>
  <rect x="0" y="1650" width="1200" height="4" fill="#ffb43c"/>
  <text x="600.0" y="1730" font-family="Arial Black, Arial, sans-serif" font-size="58" fill="#ffb43c" text-anchor="middle" letter-spacing="10">PHOTOBOOTH</text>
</svg>