<svg viewBox="0 0 1200 1800" xmlns="http://www.w3.org/2000/svg">

  <rect x="34" y="34" width="1132" height="1732" fill="none" stroke="#f7b7c6" stroke-width="10"/>
  <rect x="52" y="52" width="1096" height="1696" fill="none" stroke="#c9b8f2" stroke-width="2"/>
  <g><circle cx="92.0" cy="70.0" r="16.0" fill="#f7b7c6" opacity="0.9"/><circle cx="70.0" cy="92.0" r="16.0" fill="#f6d6e8" opacity="0.9"/><circle cx="48.0" cy="70.0" r="16.0" fill="#c9b8f2" opacity="0.9"/><circle cx="70.0" cy="48.0" r="16.0" fill="#ffe1b3" opacity="0.9"/><circle cx="70" cy="70" r="10.0" fill="#fff6ea"/><circle cx="1152.0" cy="70.0" r="16.0" fill="#f7b7c6" opacity="0.9"/><circle cx="1130.0" cy="92.0" r="16.0" fill="#f6d6e8" opacity="0.9"/><circle cx="1108.0" cy="70.0" r="16.0" fill="#c9b8f2" opacity="0.9"/><circle cx="1130.0" cy="48.0" r="16.0" fill="#ffe1b3" opacity="0.9"/><circle cx="1130" cy="70" r="10.0" fill="#fff6ea"/><circle cx="92.0" cy="1730.0" r="16.0" fill="#f7b7c6" opacity="0.9"/><circle cx="70.0" cy="1752.0" r="16.0" fill="#f6d6e8" opacity="0.9"/><circle cx="48.0" cy="1730.0" r="16.0" fill="#c9b8f2" opacity="0.9"/><circle cx="70.0" cy="1708.0" r="16.0" fill="#ffe1b3" opacity="0.9"/><circle cx="70" cy="1730" r="10.0" fill="#fff6ea"/><circle cx="1152.0" cy="1730.0" r="16.0" fill="#f7b7c6" opacity="0.9"/><circle cx="1130.0" cy="1752.0" r="16.0" fill="#f6d6e8" opacity="0.9"/><circle cx="1108.0" cy="1730.0" r="16.0" fill="#c9b8f2" opacity="0.9"/><circle cx="1130.0" cy="1708.0" r="16.0" fill="#ffe1b3" opacity="0.9"/><circle cx="1130" cy="1730" r="10.0" fill="#fff6ea"/></g>
  <g><circle cx="615.4" cy="60.0" r="11.2" fill="#f7b7c6" opacity="0.9"/><circle cx="600.0" cy="75.4" r="11.2" fill="#f6d6e8" opacity="0.9"/><circle cx="584.6" cy="60.0" r="11.2" fill="#c9b8f2" opacity="0.9"/><circle cx="600.0" cy="44.6" r="11.2" fill="#ffe1b3" opacity="0.9"/><circle cx="600.0" cy="60" r="7.0" fill="#fff6ea"/><circle cx="615.4" cy="1740.0" r="11.2" fill="#f7b7c6" opacity="0.9"/><circle cx="600.0" cy="1755.4" r="11.2" fill="#f6d6e8" opacity="0.9"/><circle cx="584.6" cy="1740.0" r="11.2" fill="#c9b8f2" opacity="0.9"/><circle cx="600.0" cy="1724.6" r="11.2" fill="#ffe1b3" opacity="0.9"/><circle cx="600.0" cy="1740" r="7.0" fill="#fff6ea"/><circle cx="75.4" cy="900.0" r="11.2" fill="#f7b7c6" opacity="0.9"/><circle cx="60.0" cy="915.4" r="11.2" fill="#f6d6e8" opacity="0.9"/><circle cx="44.6" cy="900.0" r="11.2" fill="#c9b8f2" opacity="0.9"/><circle cx="60.0" cy="884.6" r="11.2" fill="#ffe1b3" opacity="0.9"/><circle cx="60" cy="900.0" r="7.0" fill="#fff6ea"/><circle cx="1155.4" cy="900.0" r="11.2" fill="#f7b7c6" opacity="0.9"/><circle cx="1140.0" cy="915.4" r="11.2" fill="#f6d6e8" opacity="0.9"/><circle cx="1124.6" cy="900.0" r="11.2" fill="#c9b8f2" opacity="0.9"/><circle cx="1140.0" cy="884.6" r="11.2" fill="#ffe1b3" opacity="0.9"/><circle cx="1140" cy="900.0" r="7.0" fill="#fff6ea"/></g>
  <rect x="0" y="1680" width="1200" height="120" fill="#fdf1f5" opacity="0.85"/>
  <text x="600.0" y="1750" font-family="Georgia, serif" font-size="46" fill="#b9789a" text-anchor="middle" letter-spacing="4">photo booth</text>

</svg>